<svg viewBox="0 0 200 200" xmlns="http://www.w3.org/2000/svg">
  <defs>
    <linearGradient id="henGrad" x1="0%" y1="0%" x2="100%" y2="100%">
      <stop offset="0%" style="stop-color:#8D6E63"/>
      <stop offset="100%" style="stop-color:#5D4037"/>
    </linearGradient>
  </defs>
  
  <!-- Body -->
  <ellipse cx="100" cy="130" rx="55" ry="50" fill="url(#henGrad)"/>
  
  <!-- Head -->
  <circle cx="100" cy="85" r="35" fill="#795548"/>
  
  <!-- Comb -->
  <path d="M 85 60 Q 80 40 92 35 Q 96 48 100 35 Q 104 48 108 35 Q 120 40 115 60" fill="#FF5722"/>
  
  <!-- Eyes -->
  <circle cx="90" cy="80" r="6" fill="#FFF"/>
  <circle cx="110" cy="80" r="6" fill="#FFF"/>
  <circle cx="90" cy="80" r="3" fill="#333"/>
  <circle cx="110" cy="80" r="3" fill="#333"/>
  
  <!-- Beak -->
  <polygon points="100,88 95 98 105 98" fill="#FFB74D"/>
  
  <!-- Wattle -->
  <ellipse cx="100" cy="102" rx="5" ry="8" fill="#FF5722"/>
  
  <!-- Feathers -->
  <path d="M 50 120 Q 60 100 75 120" stroke="#6D4C41" stroke-width="3" fill="none"/>
  <path d="M 125 120 Q 140 100 150 120" stroke="#6D4C41" stroke-width="3" fill="none"/>
  <path d="M 55 145 Q 68 128 80 145" stroke="#6D4C41" stroke-width="3" fill="none"/>
  <path d="M 120 145 Q 132 128 145 145" stroke="#6D4C41" stroke-width="3" fill="none"/>
</svg>
